<?xml version="1.0" standalone="no"?>
<!DOCTYPE svg PUBLIC "-//W3C//DTD SVG 20010904//EN"
 "http://www.w3.org/TR/2001/REC-SVG-20010904/DTD/svg10.dtd">
<svg version="1.0" xmlns="http://www.w3.org/2000/svg"
 width="70.000000pt" height="70.000000pt" viewBox="0 0 70.000000 70.000000"
 preserveAspectRatio="xMidYMid meet">
<metadata>
Created by potrace 1.11, written by Peter Selinger 2001-2013
</metadata>
<g transform="translate(0.000000,70.000000) scale(0.100000,-0.100000)"
fill="#000000" stroke="none">
<path d="M352 683 c-69 -34 -61 -181 13 -216 54 -26 95 5 103 79 4 43 -11 97
-33 120 -27 28 -51 33 -83 17z"/>
<path d="M571 577 c-30 -15 -60 -79 -55 -122 9 -99 108 -122 144 -34 25 59 20
99 -17 135 -37 37 -38 38 -72 21z"/>
<path d="M107 557 c-37 -46 6 -144 76 -172 50 -20 70 -19 92 5 19 21 29 80 13
80 -5 0 -7 4 -4 9 4 5 -11 28 -33 51 -32 34 -46 42 -82 45 -36 3 -48 -1 -62
-18z"/>
<path d="M404 372 c-21 -3 -86 -54 -85 -66 0 -3 -7 -22 -15 -43 -17 -39 -26
-81 -26 -123 0 -28 10 -102 14 -104 2 0 12 -6 24 -12 29 -16 69 2 138 65 30
28 66 53 78 55 13 3 38 7 57 10 28 5 79 46 82 66 0 3 2 12 4 21 3 18 -37 66
-73 87 -54 31 -149 52 -198 44z"/>
<path d="M78 343 c-23 -6 -50 -64 -36 -80 6 -7 7 -13 4 -13 -4 0 5 -13 21 -29
15 -16 31 -27 36 -24 4 2 7 0 7 -5 0 -5 6 -9 13 -10 6 0 21 -3 32 -5 34 -8 84
19 91 49 18 70 -81 139 -168 117z"/>
</g>
</svg>
